ffmpeg version 3.4.8-0ubuntu0.2 Copyright (c) 2000-2020 the FFmpeg developers
  built with gcc 7 (Ubuntu 7.5.0-3ubuntu1~18.04)
  configuration: --prefix=/usr --extra-version=0ubuntu0.2 --toolchain=hardened --libdir=/usr/lib/x86_64-linux-gnu --incdir=/usr/include/x86_64-linux-gnu --enable-gpl --disable-stripping --enable-avresample --enable-avisynth --enable-gnutls --enable-ladspa --enable-libass --enable-libbluray --enable-libbs2b --enable-libcaca --enable-libcdio --enable-libflite --enable-libfontconfig --enable-libfreetype --enable-libfribidi --enable-libgme --enable-libgsm --enable-libmp3lame --enable-libmysofa --enable-libopenjpeg --enable-libopenmpt --enable-libopus --enable-libpulse --enable-librubberband --enable-librsvg --enable-libshine --enable-libsnappy --enable-libsoxr --enable-libspeex --enable-libssh --enable-libtheora --enable-libtwolame --enable-libvorbis --enable-libvpx --enable-libwavpack --enable-libwebp --enable-libx265 --enable-libxml2 --enable-libxvid --enable-libzmq --enable-libzvbi --enable-omx --enable-openal --enable-opengl --enable-sdl2 --enable-libdc1394 --enable-libdrm --enable-libiec61883 --enable-chromaprint --enable-frei0r --enable-libopencv --enable-libx264 --enable-shared
  libavutil      55. 78.100 / 55. 78.100
  libavcodec     57.107.100 / 57.107.100
  libavformat    57. 83.100 / 57. 83.100
  libavdevice    57. 10.100 / 57. 10.100
  libavfilter     6.107.100 /  6.107.100
  libavresample   3.  7.  0 /  3.  7.  0
  libswscale      4.  8.100 /  4.  8.100
  libswresample   2.  9.100 /  2.  9.100
  libpostproc    54.  7.100 / 54.  7.100
[rawvideo @ 0x558926957a20] Estimating duration from bitrate, this may be inaccurate
Input #0, rawvideo, from '../../SVC-Encoder-20220109T061506Z-001/SVC-Encoder/Dataset/RollerCoaster/6f_2x2/tile_yuv/f4_t1_480x480.yuv':
  Duration: 00:00:10.00, start: 0.000000, bitrate: 82944 kb/s
    Stream #0:0: Video: rawvideo (I420 / 0x30323449), yuv420p, 480x480, 82944 kb/s, 30 tbr, 30 tbn, 30 tbc
Stream mapping:
  Stream #0:0 -> #0:0 (rawvideo (native) -> h264 (libx264))
Press [q] to stop, [?] for help
[libx264 @ 0x558926964c60] using cpu capabilities: MMX2 SSE2Fast LZCNT SSSE3 SSE4.2 AVX
[libx264 @ 0x558926964c60] profile High, level 3.0
Output #0, rawvideo, to 'RollerCoaster_f4_t1_480x480_x264_QP_20.h264':
  Metadata:
    encoder         : Lavf57.83.100
    Stream #0:0: Video: h264 (libx264), yuv420p, 480x480, q=-1--1, 30 fps, 30 tbn, 30 tbc
    Metadata:
      encoder         : Lavc57.107.100 libx264
    Side data:
      cpb: bitrate max/min/avg: 0/0/0 buffer size: 0 vbv_delay: -1
frame=  265 fps=0.0 q=26.0 PSNR=Y:nan U:nan V:nan *:nan size=      47kB time=00:00:07.40 bitrate=  52.3kbits/s speed=14.8x    frame=  300 fps=0.0 q=26.0 LPSNR=Y:inf U:inf V:inf *:inf size=      58kB time=00:00:09.93 bitrate=  47.7kbits/s speed=15.9x    
video:58kB audio:0kB subtitle:0kB other streams:0kB global headers:0kB muxing overhead: 0.000000%
[libx264 @ 0x558926964c60] frame I:2     Avg QP:19.02  size:  3205  PSNR Mean Y:53.92 U:55.55 V:56.85 Avg:54.54 Global:54.50
[libx264 @ 0x558926964c60] frame P:77    Avg QP:19.73  size:   539  PSNR Mean Y:53.30 U:54.84 V:55.96 Avg:53.88 Global:53.85
[libx264 @ 0x558926964c60] frame B:221   Avg QP:25.59  size:    51  PSNR Mean Y:53.10 U:54.83 V:55.94 Avg:53.72 Global:53.71
[libx264 @ 0x558926964c60] consecutive B-frames:  1.3%  1.3%  0.0% 97.3%
[libx264 @ 0x558926964c60] mb I  I16..4: 61.8% 35.8%  2.4%
[libx264 @ 0x558926964c60] mb P  I16..4:  4.6%  1.0%  0.0%  P16..4: 13.4%  1.3%  0.3%  0.0%  0.0%    skip:79.4%
[libx264 @ 0x558926964c60] mb B  I16..4:  0.0%  0.0%  0.0%  B16..8:  2.2%  0.2%  0.0%  direct: 0.0%  skip:97.6%  L0:32.3% L1:62.7% BI: 5.0%
[libx264 @ 0x558926964c60] 8x8 transform intra:23.0% inter:74.2%
[libx264 @ 0x558926964c60] coded y,uvDC,uvAC intra: 5.9% 18.7% 0.3% inter: 0.5% 1.2% 0.0%
[libx264 @ 0x558926964c60] i16 v,h,dc,p: 44% 23% 13% 20%
[libx264 @ 0x558926964c60] i8 v,h,dc,ddl,ddr,vr,hd,vl,hu: 31% 21% 35%  3%  2%  2%  3%  1%  2%
[libx264 @ 0x558926964c60] i4 v,h,dc,ddl,ddr,vr,hd,vl,hu: 35% 25% 15%  4%  6%  3%  9%  2%  2%
[libx264 @ 0x558926964c60] i8c dc,h,v,p: 66% 18% 14%  2%
[libx264 @ 0x558926964c60] Weighted P-Frames: Y:0.0% UV:0.0%
[libx264 @ 0x558926964c60] ref P L0: 81.6%  2.5% 11.1%  4.8%
[libx264 @ 0x558926964c60] ref B L0: 76.5% 19.8%  3.7%
[libx264 @ 0x558926964c60] ref B L1: 88.0% 12.0%
[libx264 @ 0x558926964c60] PSNR Mean Y:53.155 U:54.834 V:55.953 Avg:53.769 Global:53.753 kb/s:47.42
